<svg width="604" height="406" xmlns="http://www.w3.org/2000/svg" xmlns:xlink="http://www.w3.org/1999/xlink" xml:space="preserve" overflow="hidden"><g transform="translate(-12 -174)"><path d="M4.95082 4.95082 282.197 4.95082" stroke="#000000" stroke-width="4.95082" stroke-linecap="square" fill="none" transform="matrix(1 0 0 1.00008 12 174)"/><path d="M321.803 4.95082 599.049 4.95082" stroke="#000000" stroke-width="4.95082" stroke-linecap="square" fill="none" transform="matrix(1 0 0 1.00008 12 174)"/><path d="M84.1639 44.5574 401.016 44.5574" stroke="#000000" stroke-width="4.95082" stroke-linecap="square" fill="none" transform="matrix(1 0 0 1.00008 12 174)"/><path d="M480.229 44.5574 519.836 44.5574" stroke="#000000" stroke-width="4.95082" stroke-linecap="square" fill="none" transform="matrix(1 0 0 1.00008 12 174)"/><path d="M4.95082 84.1639 123.77 84.1639" stroke="#000000" stroke-width="4.95082" stroke-linecap="square" fill="none" transform="matrix(1 0 0 1.00008 12 174)"/><path d="M163.377 84.1639 202.984 84.1639" stroke="#000000" stroke-width="4.95082" stroke-linecap="square" fill="none" transform="matrix(1 0 0 1.00008 12 174)"/><path d="M242.59 84.1639 282.197 84.1639" stroke="#000000" stroke-width="4.95082" stroke-linecap="square" fill="none" transform="matrix(1 0 0 1.00008 12 174)"/><path d="M321.803 84.1639 361.41 84.1639" stroke="#000000" stroke-width="4.95082" stroke-linecap="square" fill="none" transform="matrix(1 0 0 1.00008 12 174)"/><path d="M440.623 84.1639 480.229 84.1639" stroke="#000000" stroke-width="4.95082" stroke-linecap="square" fill="none" transform="matrix(1 0 0 1.00008 12 174)"/><path d="M559.443 84.1639 599.049 84.1639" stroke="#000000" stroke-width="4.95082" stroke-linecap="square" fill="none" transform="matrix(1 0 0 1.00008 12 174)"/><path d="M44.5574 123.77 163.377 123.77" stroke="#000000" stroke-width="4.95082" stroke-linecap="square" fill="none" transform="matrix(1 0 0 1.00008 12 174)"/><path d="M282.197 123.77 321.803 123.77" stroke="#000000" stroke-width="4.95082" stroke-linecap="square" fill="none" transform="matrix(1 0 0 1.00008 12 174)"/><path d="M480.229 123.77 559.443 123.77" stroke="#000000" stroke-width="4.95082" stroke-linecap="square" fill="none" transform="matrix(1 0 0 1.00008 12 174)"/><path d="M84.1639 163.377 123.77 163.377" stroke="#000000" stroke-width="4.95082" stroke-linecap="square" fill="none" transform="matrix(1 0 0 1.00008 12 174)"/><path d="M163.377 163.377 242.59 163.377" stroke="#000000" stroke-width="4.95082" stroke-linecap="square" fill="none" transform="matrix(1 0 0 1.00008 12 174)"/><path d="M361.41 163.377 401.016 163.377" stroke="#000000" stroke-width="4.95082" stroke-linecap="square" fill="none" transform="matrix(1 0 0 1.00008 12 174)"/><path d="M519.836 163.377 599.049 163.377" stroke="#000000" stroke-width="4.95082" stroke-linecap="square" fill="none" transform="matrix(1 0 0 1.00008 12 174)"/><path d="M44.5574 202.984 123.77 202.984" stroke="#000000" stroke-width="4.95082" stroke-linecap="square" fill="none" transform="matrix(1 0 0 1.00008 12 174)"/><path d="M202.984 202.984 282.197 202.984" stroke="#000000" stroke-width="4.95082" stroke-linecap="square" fill="none" transform="matrix(1 0 0 1.00008 12 174)"/><path d="M321.803 202.984 361.41 202.984" stroke="#000000" stroke-width="4.95082" stroke-linecap="square" fill="none" transform="matrix(1 0 0 1.00008 12 174)"/><path d="M440.623 202.984 519.836 202.984" stroke="#000000" stroke-width="4.95082" stroke-linecap="square" fill="none" transform="matrix(1 0 0 1.00008 12 174)"/><path d="M163.377 242.59 202.984 242.59" stroke="#000000" stroke-width="4.95082" stroke-linecap="square" fill="none" transform="matrix(1 0 0 1.00008 12 174)"/><path d="M282.197 242.59 321.803 242.59" stroke="#000000" stroke-width="4.95082" stroke-linecap="square" fill="none" transform="matrix(1 0 0 1.00008 12 174)"/><path d="M401.016 242.59 480.229 242.59" stroke="#000000" stroke-width="4.95082" stroke-linecap="square" fill="none" transform="matrix(1 0 0 1.00008 12 174)"/><path d="M84.1639 282.197 361.41 282.197" stroke="#000000" stroke-width="4.95082" stroke-linecap="square" fill="none" transform="matrix(1 0 0 1.00008 12 174)"/><path d="M401.016 282.197 440.623 282.197" stroke="#000000" stroke-width="4.95082" stroke-linecap="square" fill="none" transform="matrix(1 0 0 1.00008 12 174)"/><path d="M519.836 282.197 559.443 282.197" stroke="#000000" stroke-width="4.95082" stroke-linecap="square" fill="none" transform="matrix(1 0 0 1.00008 12 174)"/><path d="M123.77 321.803 202.984 321.803" stroke="#000000" stroke-width="4.95082" stroke-linecap="square" fill="none" transform="matrix(1 0 0 1.00008 12 174)"/><path d="M361.41 321.803 519.836 321.803" stroke="#000000" stroke-width="4.95082" stroke-linecap="square" fill="none" transform="matrix(1 0 0 1.00008 12 174)"/><path d="M84.1639 361.41 163.377 361.41" stroke="#000000" stroke-width="4.95082" stroke-linecap="square" fill="none" transform="matrix(1 0 0 1.00008 12 174)"/><path d="M242.59 361.41 321.803 361.41" stroke="#000000" stroke-width="4.95082" stroke-linecap="square" fill="none" transform="matrix(1 0 0 1.00008 12 174)"/><path d="M480.229 361.41 559.443 361.41" stroke="#000000" stroke-width="4.95082" stroke-linecap="square" fill="none" transform="matrix(1 0 0 1.00008 12 174)"/><path d="M4.95082 401.016 282.197 401.016" stroke="#000000" stroke-width="4.95082" stroke-linecap="square" fill="none" transform="matrix(1 0 0 1.00008 12 174)"/><path d="M321.803 401.016 599.049 401.016" stroke="#000000" stroke-width="4.95082" stroke-linecap="square" fill="none" transform="matrix(1 0 0 1.00008 12 174)"/><path d="M4.95082 4.95082 4.95082 401.016" stroke="#000000" stroke-width="4.95082" stroke-linecap="square" fill="none" transform="matrix(1 0 0 1.00008 12 174)"/><path d="M44.5574 44.5574 44.5574 84.1639" stroke="#000000" stroke-width="4.95082" stroke-linecap="square" fill="none" transform="matrix(1 0 0 1.00008 12 174)"/><path d="M44.5574 123.77 44.5574 401.016" stroke="#000000" stroke-width="4.95082" stroke-linecap="square" fill="none" transform="matrix(1 0 0 1.00008 12 174)"/><path d="M84.1639 242.59 84.1639 361.41" stroke="#000000" stroke-width="4.95082" stroke-linecap="square" fill="none" transform="matrix(1 0 0 1.00008 12 174)"/><path d="M123.77 163.377 123.77 242.59" stroke="#000000" stroke-width="4.95082" stroke-linecap="square" fill="none" transform="matrix(1 0 0 1.00008 12 174)"/><path d="M163.377 44.5574 163.377 84.1639" stroke="#000000" stroke-width="4.95082" stroke-linecap="square" fill="none" transform="matrix(1 0 0 1.00008 12 174)"/><path d="M163.377 163.377 163.377 282.197" stroke="#000000" stroke-width="4.95082" stroke-linecap="square" fill="none" transform="matrix(1 0 0 1.00008 12 174)"/><path d="M202.984 84.1639 202.984 163.377" stroke="#000000" stroke-width="4.95082" stroke-linecap="square" fill="none" transform="matrix(1 0 0 1.00008 12 174)"/><path d="M202.984 321.803 202.984 401.016" stroke="#000000" stroke-width="4.95082" stroke-linecap="square" fill="none" transform="matrix(1 0 0 1.00008 12 174)"/><path d="M242.59 84.1639 242.59 123.77" stroke="#000000" stroke-width="4.95082" stroke-linecap="square" fill="none" transform="matrix(1 0 0 1.00008 12 174)"/><path d="M242.59 242.59 242.59 361.41" stroke="#000000" stroke-width="4.95082" stroke-linecap="square" fill="none" transform="matrix(1 0 0 1.00008 12 174)"/><path d="M282.197 84.1639 282.197 242.59" stroke="#000000" stroke-width="4.95082" stroke-linecap="square" fill="none" transform="matrix(1 0 0 1.00008 12 174)"/><path d="M282.197 282.197 282.197 321.803" stroke="#000000" stroke-width="4.95082" stroke-linecap="square" fill="none" transform="matrix(1 0 0 1.00008 12 174)"/><path d="M321.803 123.77 321.803 202.984" stroke="#000000" stroke-width="4.95082" stroke-linecap="square" fill="none" transform="matrix(1 0 0 1.00008 12 174)"/><path d="M321.803 321.803 321.803 401.016" stroke="#000000" stroke-width="4.95082" stroke-linecap="square" fill="none" transform="matrix(1 0 0 1.00008 12 174)"/><path d="M361.41 44.5574 361.41 123.77" stroke="#000000" stroke-width="4.95082" stroke-linecap="square" fill="none" transform="matrix(1 0 0 1.00008 12 174)"/><path d="M361.41 202.984 361.41 361.41" stroke="#000000" stroke-width="4.95082" stroke-linecap="square" fill="none" transform="matrix(1 0 0 1.00008 12 174)"/><path d="M401.016 84.1639 401.016 282.197" stroke="#000000" stroke-width="4.95082" stroke-linecap="square" fill="none" transform="matrix(1 0 0 1.00008 12 174)"/><path d="M401.016 361.41 401.016 401.016" stroke="#000000" stroke-width="4.95082" stroke-linecap="square" fill="none" transform="matrix(1 0 0 1.00008 12 174)"/><path d="M440.623 44.5574 440.623 202.984" stroke="#000000" stroke-width="4.95082" stroke-linecap="square" fill="none" transform="matrix(1 0 0 1.00008 12 174)"/><path d="M440.623 321.803 440.623 361.41" stroke="#000000" stroke-width="4.95082" stroke-linecap="square" fill="none" transform="matrix(1 0 0 1.00008 12 174)"/><path d="M480.229 4.95082 480.229 44.5574" stroke="#000000" stroke-width="4.95082" stroke-linecap="square" fill="none" transform="matrix(1 0 0 1.00008 12 174)"/><path d="M480.229 123.77 480.229 163.377" stroke="#000000" stroke-width="4.95082" stroke-linecap="square" fill="none" transform="matrix(1 0 0 1.00008 12 174)"/><path d="M480.229 242.59 480.229 321.803" stroke="#000000" stroke-width="4.95082" stroke-linecap="square" fill="none" transform="matrix(1 0 0 1.00008 12 174)"/><path d="M519.836 44.5574 519.836 123.77" stroke="#000000" stroke-width="4.95082" stroke-linecap="square" fill="none" transform="matrix(1 0 0 1.00008 12 174)"/><path d="M519.836 163.377 519.836 282.197" stroke="#000000" stroke-width="4.95082" stroke-linecap="square" fill="none" transform="matrix(1 0 0 1.00008 12 174)"/><path d="M559.443 4.95082 559.443 44.5574" stroke="#000000" stroke-width="4.95082" stroke-linecap="square" fill="none" transform="matrix(1 0 0 1.00008 12 174)"/><path d="M559.443 202.984 559.443 361.41" stroke="#000000" stroke-width="4.95082" stroke-linecap="square" fill="none" transform="matrix(1 0 0 1.00008 12 174)"/><path d="M599.049 4.95082 599.049 401.016" stroke="#000000" stroke-width="4.95082" stroke-linecap="square" fill="none" transform="matrix(1 0 0 1.00008 12 174)"/></g></svg>